# xmcd
#
# Track frame offsets:
#	150
#	10800
#	20595
#	30915
#	38925
#	54750
#	63150
#	71010
#	84180
#	93593
#	103778
#	114631
#
# Disc length: 1670 seconds
#
# Revision: 1
# Processed by: cddbd v1.5.2PL0 Copyright (c) Steve Scherf et al.
# Submitted via: audiograbber 1.83.01
#
DISCID=8c06840c
DTITLE=Ernest Tubb - Presents The Texas Troubadours
DYEAR=1900
DGENRE=Country
TTITLE0=San Antonio Rose
TTITLE1=Cains Corner
TTITLE2=I'll Have Another Cup Of Coffee (Then I'll Go)
TTITLE3=Twelfth Street Rag
TTITLE4=The Last Letter
TTITLE5=Pan Handle Rag
TTITLE6=Texas Troubadour Stomp
TTITLE7=I Will Mess You When You Go
TTITLE8=Rhodes_Bud Boogie
TTITLE9=Six Days On The Road
TTITLE10=The Waltz You Saved For Me
TTITLE11=Honey Love
EXTD=
EXTT0=
EXTT1=
EXTT2=
EXTT3=
EXTT4=
EXTT5=
EXTT6=
EXTT7=
EXTT8=
EXTT9=
EXTT10=
EXTT11=
PLAYORDER=
